#N canvas 1655 943 897 467 10;
#X obj 348 38 knob 32 32 0 1000 0 0 empty empty empty 0 -8 0 8 -262144
-1 -1 200 1;
#X floatatom 347 84 5 0 0 0 - - -;
#X obj 461 36 knob 32 32 0 1 0 0 empty empty empty 0 -8 0 8 -262144
-1 -1 1200 1;
#X floatatom 461 84 5 0 0 0 - - -;
#X obj 408 37 knob 32 32 0 1000 0 0 empty empty empty 0 -8 0 8 -262144
-1 -1 200 1;
#X floatatom 407 84 5 0 0 0 - - -;
#X obj 572 37 knob 32 32 0 1000 0 0 empty empty empty 0 -8 0 8 -262144
-1 -1 200 1;
#X floatatom 571 84 5 0 0 0 - - -;
#X obj 450 298 vline~;
#X obj 795 236 final_gain~;
#X obj 446 368 snapshot~;
#X floatatom 446 390 5 0 0 0 - - -;
#X obj 391 193 bng 15 250 50 0 empty empty empty 17 7 0 10 -262144
-1 -1;
#X obj 509 317 tgl 15 0 empty empty empty 17 7 0 10 -262144 -1 -1 1
1;
#X obj 509 335 metro 100;
#X obj 801 168 *~;
#X text 343 20 Attack;
#X text 454 16 Sustain;
#X text 398 16 Decay;
#X text 569 16 Release;
#X obj 443 199 pack f f f f f f;
#X floatatom 517 83 5 0 0 0 - - -;
#X msg 447 252 1 \$2 \, \$4 \$3 \$2 \, 0 \$6 \$5;
#X obj 518 34 knob 32 32 0 1000 0 0 empty empty empty 0 -8 0 8 -262144
-1 -1 2400 1;
#X text 516 15 Hold;
#X obj 801 120 phasor~ 440;
#X obj 517 128 +;
#X obj 517 107 +;
#X floatatom 516 156 5 0 0 0 - - -;
#X connect 0 0 1 0;
#X connect 1 0 20 1;
#X connect 1 0 26 1;
#X connect 2 0 3 0;
#X connect 3 0 20 3;
#X connect 4 0 5 0;
#X connect 5 0 20 2;
#X connect 5 0 27 1;
#X connect 6 0 7 0;
#X connect 7 0 20 5;
#X connect 8 0 10 0;
#X connect 8 0 15 1;
#X connect 10 0 11 0;
#X connect 12 0 20 0;
#X connect 13 0 14 0;
#X connect 14 0 10 0;
#X connect 15 0 9 0;
#X connect 15 0 9 1;
#X connect 20 0 22 0;
#X connect 21 0 27 0;
#X connect 22 0 8 0;
#X connect 23 0 21 0;
#X connect 25 0 15 0;
#X connect 26 0 28 0;
#X connect 27 0 26 0;
#X connect 28 0 20 4;
