#N canvas 17 32 540 503 10;
#X obj 136 137 knob 32 32 0 1000 0 0 empty empty empty 0 -8 0 8 -262144
-1 -1 3 1;
#X floatatom 136 177 5 0 0 0 - - -;
#X obj 287 137 knob 32 32 0 1 0 0 empty empty empty 0 -8 0 8 -262144
-1 -1 3100 1;
#X floatatom 287 177 5 0 0 0 - - -;
#X obj 212 138 knob 32 32 0 1000 0 0 empty empty empty 0 -8 0 8 -262144
-1 -1 3 1;
#X floatatom 212 177 5 0 0 0 - - -;
#X obj 362 138 knob 32 32 0 1000 0 0 empty empty empty 0 -8 0 8 -262144
-1 -1 3 1;
#X floatatom 362 177 5 0 0 0 - - -;
#X obj 210 349 vline~;
#X text 134 119 Attack;
#X text 283 118 Sustain;
#X text 211 119 Decay;
#X text 359 119 Release;
#X obj 210 307 pack f f f f f f;
#X msg 210 328 1 \$2 \, \$4 \$3 \$2 \, 0 \$6 \$5;
#X obj 284 258 +;
#X floatatom 283 286 5 0 0 0 - - -;
#X obj 284 232 t b f;
#X obj 210 372 outlet~;
#X obj 178 275 inlet;
#X connect 0 0 1 0;
#X connect 1 0 13 1;
#X connect 1 0 15 0;
#X connect 2 0 3 0;
#X connect 3 0 13 3;
#X connect 4 0 5 0;
#X connect 5 0 13 2;
#X connect 5 0 17 0;
#X connect 6 0 7 0;
#X connect 7 0 13 5;
#X connect 8 0 18 0;
#X connect 13 0 14 0;
#X connect 14 0 8 0;
#X connect 15 0 16 0;
#X connect 16 0 13 4;
#X connect 17 0 15 0;
#X connect 17 1 15 1;
#X connect 19 0 13 0;
#X coords 0 -1 1 1 325 100 1 100 100;
