#N canvas 679 111 750 688 10;
#X obj 120 145 knob 32 32 0 1 0 0 empty empty empty 0 -8 0 8 -262144
-1 -1 500 1;
#X obj 124 190 vu 15 120 empty empty -1 -8 0 10 -66577 -1 1 0;
#X obj 105 190 vu 15 120 empty empty -1 -8 0 10 -66577 -262144 0 0
;
#X obj 91 9 inlet~;
#X obj 134 9 inlet~;
#X obj 147 41 *~;
#X obj 107 40 *~;
#X obj 106 63 env~;
#X obj 146 63 env~;
#X obj 107 357 dac~ 1 2;
#X text 120 108 FINAL;
#X obj 182 80 - 100;
#X obj 60 80 - 100;
#X connect 0 0 5 1;
#X connect 0 0 6 1;
#X connect 3 0 6 0;
#X connect 4 0 5 0;
#X connect 5 0 8 0;
#X connect 5 0 9 1;
#X connect 6 0 7 0;
#X connect 6 0 9 0;
#X connect 7 0 12 0;
#X connect 8 0 11 0;
#X connect 11 0 1 0;
#X connect 12 0 2 0;
#X coords 0 -1 1 1 70 220 2 100 100;
