#N canvas 0 22 1276 706 10;
#X obj 1184 476 final_gain~;
#X obj 35 54 stripnote;
#X obj 35 32 notein;
#X floatatom 35 76 5 0 0 0 - - -;
#X floatatom 72 76 5 0 0 0 - - -;
#X obj 141 46 ctlin;
#X floatatom 141 76 5 0 0 0 - - -;
#X floatatom 181 76 5 0 0 0 - - -;
#X floatatom 221 76 5 0 0 0 - - -;
#X obj 35 97 mtof;
#X msg 687 295 0 \$2;
#X obj 289 598 *~;
#X obj 577 332 vline~;
#X obj 577 271 pack f f f f;
#X obj 687 271 pack f f;
#X obj 687 249 sel 0;
#X obj 582 133 knob 32 32 0 127 0 0 empty empty empty 0 -8 0 8 -262144
-1 -1 100 1;
#X floatatom 582 193 5 0 0 0 - - -;
#X obj 662 133 knob 32 32 0 127 0 0 empty empty empty 0 -8 0 8 -262144
-1 -1 200 1;
#X floatatom 662 193 5 0 0 0 - - -;
#X obj 743 133 knob 32 32 0 127 0 0 empty empty empty 0 -8 0 8 -262144
-1 -1 200 1;
#X floatatom 743 193 5 0 0 0 - - -;
#X obj 825 134 knob 32 32 0 127 0 0 empty empty empty 0 -8 0 8 -262144
-1 -1 300 1;
#X floatatom 825 194 5 0 0 0 - - -;
#X obj 824 173 * 7.875;
#X obj 582 213 int;
#X obj 662 213 int;
#X obj 825 213 int;
#X msg 577 295 1 \$2 \, \$4 \$3 \$2;
#X floatatom 35 138 5 0 0 0 - - -;
#X obj 582 102 ctlin 21 1;
#X obj 662 102 ctlin 22 1;
#X obj 742 102 ctlin 23 1;
#X obj 825 102 ctlin 24 1;
#X obj 35 117 int;
#X obj 582 173 * 7.875;
#X obj 662 173 * 7.875;
#X obj 743 173 / 127;
#X obj 44 381 multi_osc~;
#X obj 1073 702;
#X obj 1073 702 vcf;
#X obj 1073 702;
#X obj 1073 702 vcf~;
#X obj 292 379 vcf~;
#X floatatom 290 597 5 0 0 0 - - -;
#X obj 371 103 ctlin 33 1;
#X floatatom 370 152 5 0 0 0 - - -;
#X obj 371 128 * 10;
#X floatatom 449 151 5 0 0 0 - - -;
#X obj 450 62 ctlin 11 1;
#X obj 451 87 / 8;
#X obj 98 122 bendin;
#X floatatom 130 163 5 0 0 0 - - -;
#X floatatom 88 169 5 0 0 0 - - -;
#X floatatom 88 241 5 0 0 0 - - -;
#X obj 88 192 - 8192;
#X obj 88 215 / 4096;
#X obj 88 265 transposer;
#X obj 87 311 *;
#X floatatom 87 335 5 0 0 0 - - -;
#X obj 98 286 t b f;
#X obj 449 111 knob 32 32 0 5 0 0 empty empty empty 0 -8 0 8 -262144
-1 -1 3100 1;
#X connect 1 0 3 0;
#X connect 1 0 13 0;
#X connect 1 1 4 0;
#X connect 2 0 1 0;
#X connect 2 1 1 1;
#X connect 2 1 15 0;
#X connect 3 0 9 0;
#X connect 5 0 6 0;
#X connect 5 1 7 0;
#X connect 5 2 8 0;
#X connect 9 0 34 0;
#X connect 10 0 12 0;
#X connect 11 0 0 0;
#X connect 11 0 0 1;
#X connect 12 0 11 1;
#X connect 13 0 28 0;
#X connect 14 0 10 0;
#X connect 15 0 14 0;
#X connect 16 0 35 0;
#X connect 17 0 25 0;
#X connect 18 0 36 0;
#X connect 19 0 26 0;
#X connect 20 0 37 0;
#X connect 21 0 13 3;
#X connect 22 0 24 0;
#X connect 23 0 27 0;
#X connect 24 0 23 0;
#X connect 25 0 13 1;
#X connect 26 0 13 2;
#X connect 27 0 14 1;
#X connect 28 0 12 0;
#X connect 29 0 58 0;
#X connect 30 0 16 0;
#X connect 31 0 18 0;
#X connect 32 0 20 0;
#X connect 33 0 22 0;
#X connect 34 0 29 0;
#X connect 35 0 17 0;
#X connect 36 0 19 0;
#X connect 37 0 21 0;
#X connect 38 0 43 0;
#X connect 43 0 11 0;
#X connect 45 0 47 0;
#X connect 46 0 43 1;
#X connect 47 0 46 0;
#X connect 48 0 43 2;
#X connect 49 0 50 0;
#X connect 50 0 61 0;
#X connect 51 0 53 0;
#X connect 51 1 52 0;
#X connect 53 0 55 0;
#X connect 54 0 57 0;
#X connect 55 0 56 0;
#X connect 56 0 54 0;
#X connect 57 0 60 0;
#X connect 58 0 59 0;
#X connect 59 0 38 0;
#X connect 60 0 58 0;
#X connect 60 1 58 1;
#X connect 61 0 48 0;
