#N canvas 0 22 1276 706 10;
#X obj 1184 476 final_gain~;
#X obj 35 54 stripnote;
#X obj 35 32 notein;
#X floatatom 35 76 5 0 0 0 - - -;
#X floatatom 72 76 5 0 0 0 - - -;
#X obj 141 46 ctlin;
#X floatatom 141 76 5 0 0 0 - - -;
#X floatatom 181 76 5 0 0 0 - - -;
#X floatatom 221 76 5 0 0 0 - - -;
#X obj 35 97 mtof;
#X msg 354 380 0 \$2;
#X obj 127 451 *~;
#X obj 244 417 vline~;
#X obj 244 356 pack f f f f;
#X obj 354 356 pack f f;
#X obj 354 334 sel 0;
#X obj 249 218 knob 32 32 0 127 0 0 empty empty empty 0 -8 0 8 -262144
-1 -1 732 1;
#X floatatom 249 278 5 0 0 0 - - -;
#X obj 329 218 knob 32 32 0 127 0 0 empty empty empty 0 -8 0 8 -262144
-1 -1 1391 1;
#X floatatom 329 278 5 0 0 0 - - -;
#X obj 410 218 knob 32 32 0 127 0 0 empty empty empty 0 -8 0 8 -262144
-1 -1 1440 1;
#X floatatom 410 278 5 0 0 0 - - -;
#X obj 492 219 knob 32 32 0 127 0 0 empty empty empty 0 -8 0 8 -262144
-1 -1 1196 1;
#X floatatom 492 279 5 0 0 0 - - -;
#X obj 491 258 * 7.875;
#X obj 249 298 int;
#X obj 329 298 int;
#X obj 492 298 int;
#X msg 244 380 1 \$2 \, \$4 \$3 \$2;
#X floatatom 35 138 5 0 0 0 - - -;
#X obj 26 319 osc~;
#X obj 66 319 osc~;
#X obj 66 367 *~;
#X obj 249 187 ctlin 21 1;
#X obj 329 187 ctlin 22 1;
#X obj 409 187 ctlin 23 1;
#X obj 492 187 ctlin 24 1;
#X obj 35 117 int;
#X obj 249 258 * 7.875;
#X obj 329 258 * 7.875;
#X obj 172 175 knob 32 32 0 127 0 0 empty empty empty 0 -8 0 8 -262144
-1 -1 2099 1;
#X obj 171 149 ctlin 1 1;
#X obj 410 258 / 127;
#X obj 66 210 *;
#X floatatom 92 186 12 0 0 0 - - -;
#X obj 92 165 transposer;
#X obj 173 217 * 25;
#X obj 186 246 sig~;
#X obj 26 389 +~;
#X obj 26 412 osc~;
#X floatatom 93 143 5 0 0 0 - - -;
#X connect 1 0 3 0;
#X connect 1 0 13 0;
#X connect 1 1 4 0;
#X connect 2 0 1 0;
#X connect 2 1 1 1;
#X connect 2 1 15 0;
#X connect 3 0 9 0;
#X connect 5 0 6 0;
#X connect 5 1 7 0;
#X connect 5 2 8 0;
#X connect 9 0 37 0;
#X connect 10 0 12 0;
#X connect 11 0 0 0;
#X connect 11 0 0 1;
#X connect 12 0 11 1;
#X connect 13 0 28 0;
#X connect 14 0 10 0;
#X connect 15 0 14 0;
#X connect 16 0 38 0;
#X connect 17 0 25 0;
#X connect 18 0 39 0;
#X connect 19 0 26 0;
#X connect 20 0 42 0;
#X connect 21 0 13 3;
#X connect 22 0 24 0;
#X connect 23 0 27 0;
#X connect 24 0 23 0;
#X connect 25 0 13 1;
#X connect 26 0 13 2;
#X connect 27 0 14 1;
#X connect 28 0 12 0;
#X connect 29 0 30 0;
#X connect 29 0 43 0;
#X connect 30 0 48 0;
#X connect 31 0 32 0;
#X connect 32 0 48 1;
#X connect 33 0 16 0;
#X connect 34 0 18 0;
#X connect 35 0 20 0;
#X connect 36 0 22 0;
#X connect 37 0 29 0;
#X connect 38 0 17 0;
#X connect 39 0 19 0;
#X connect 40 0 46 0;
#X connect 41 0 40 0;
#X connect 42 0 21 0;
#X connect 43 0 31 0;
#X connect 44 0 43 1;
#X connect 45 0 44 0;
#X connect 46 0 47 0;
#X connect 47 0 32 1;
#X connect 48 0 49 0;
#X connect 49 0 11 0;
#X connect 50 0 45 0;
