#N canvas 1 22 621 511 10;
#X obj 139 14 tgl 15 0 empty empty empty 17 7 0 10 -262144 -1 -1 1
1;
#X obj 142 48 cursor;
#X obj 142 77 route motion;
#X obj 142 106 route x y;
#X floatatom 32 122 5 0 0 0 - - -;
#X floatatom 67 122 5 0 0 0 - - -;
#X obj 41 6 tgl 50 0 empty empty empty 17 7 0 10 -262144 -1 -1 1 1
;
#X msg 44 62 \; pd dsp \$1;
#X floatatom 7 60 5 0 0 0 - - -;
#X obj 516 252 final_gain~;
#X obj 99 197 osc~ 440;
#X obj 206 264 *~;
#X obj 226 199 autoscale 0 1;
#X obj 152 227 *~;
#X obj 28 167 hsl 128 15 0 35 0 0 empty empty empty -2 -8 0 10 -262144
-1 -1 4800 1;
#X obj 167 200 osc~ 22;
#X obj 215 111 noise~;
#X connect 0 0 1 0;
#X connect 1 0 2 0;
#X connect 2 0 3 0;
#X connect 3 0 4 0;
#X connect 3 0 10 0;
#X connect 3 1 5 0;
#X connect 3 1 12 0;
#X connect 6 0 7 0;
#X connect 6 0 8 0;
#X connect 10 0 13 0;
#X connect 11 0 9 0;
#X connect 11 0 9 1;
#X connect 12 0 11 1;
#X connect 13 0 11 0;
#X connect 14 0 15 0;
#X connect 15 0 13 1;
