#N canvas 702 22 574 680 10;
#X obj 260 278 outlet~;
#X obj 338 101 osc~ 440;
#X msg 257 190 choice \$1;
#X obj 107 142 hradio 25 1 0 5 empty empty OFF--SQR--TRI--SIN--SAW
0 -8 0 10 -262144 -1 -1 0;
#X obj 253 101 square~;
#X obj 305 101 tri~;
#X obj 104 55 inlet;
#X obj 395 101 phasor~ 440;
#X obj 257 213 polygate~ 4 5;
#X obj 395 123 *~ 2;
#X obj 395 144 -~ 1;
#X connect 1 0 8 2;
#X connect 2 0 8 0;
#X connect 3 0 2 0;
#X connect 4 0 8 0;
#X connect 5 0 8 1;
#X connect 6 0 4 0;
#X connect 6 0 5 0;
#X connect 6 0 1 0;
#X connect 6 0 7 0;
#X connect 7 0 9 0;
#X connect 8 0 0 0;
#X connect 9 0 10 0;
#X connect 10 0 8 3;
#X coords 0 -1 1 1 150 80 1 100 100;
