#N canvas 1482 101 342 834 10;
#X obj 128 187 adsr~;
#X obj 87 29 t b f;
#X obj 106 622 osc~ 440;
#X obj 155 439 knob 32 32 -48 48 0 0 empty empty empty 0 -8 0 8 -262144
-1 -1 0 1;
#X floatatom 156 483 5 0 0 0 - - -;
#X floatatom 114 552 12 0 0 0 - - -;
#X obj 126 474 int;
#X obj 114 530 transposer;
#X obj 106 576 *;
#X floatatom 106 597 5 0 0 0 - - -;
#X text 159 418 Tune;
#X obj 230 14 inlet~;
#X obj 256 140 knob 32 32 500 10000 0 1 empty empty empty 0 -8 0 8
-262144 -1 -1 3100 1;
#X text 252 120 Mod Amt;
#X obj 221 159 *~;
#X obj 122 668 +~;
#X obj 122 691 osc~;
#X obj 123 726 *~;
#X obj 87 6 inlet;
#X obj 145 770 outlet~;
#X msg 39 7 440;
#X text 13 574 Transpose according to semitone knob;
#X text 21 665 Apply FM;
#X text 46 723 ADSR;
#X connect 0 0 17 1;
#X connect 1 0 0 0;
#X connect 1 1 8 0;
#X connect 2 0 15 0;
#X connect 3 0 6 0;
#X connect 4 0 7 0;
#X connect 5 0 8 1;
#X connect 6 0 4 0;
#X connect 7 0 5 0;
#X connect 8 0 9 0;
#X connect 9 0 2 0;
#X connect 11 0 14 0;
#X connect 12 0 14 1;
#X connect 14 0 15 1;
#X connect 15 0 16 0;
#X connect 16 0 17 0;
#X connect 17 0 19 0;
#X connect 18 0 1 0;
#X connect 20 0 1 0;
#X coords 0 -1 1 1 200 425 1 100 100;
