#N canvas 202 22 716 706 10;
#X obj 112 114 adsr~;
#X obj 481 607 osc~ 440;
#X obj 147 244 knob 32 32 -48 48 0 0 empty empty empty 0 -8 0 8 -262144
-1 -1 0 1;
#X floatatom 148 288 5 -48 48 0 - - -;
#X floatatom 496 350 12 0 22000 0 - - -;
#X obj 118 279 int;
#X obj 148 333 transposer;
#X obj 481 376 *;
#X floatatom 481 399 5 0 0 0 - - -;
#X obj 454 74 inlet;
#X obj 117 663 outlet~;
#X obj 117 641 *~;
#X obj 300 242 knob 32 32 0 1 0 1 empty empty empty 0 -8 0 8 -262144
-1 -1 3100 1;
#X text 304 221 Gain;
#X floatatom 300 286 5 0 0 0 - - -;
#X text 148 223 Pitch;
#X obj 300 624 *~;
#X obj 454 97 t b f;
#X obj 224 244 knob 32 32 -48 48 0 0 empty empty empty 0 -8 0 8 -262144
-1 -1 1600 1;
#X floatatom 225 288 5 0 0 0 - - -;
#X obj 195 279 int;
#X obj 225 404 transposer_cents;
#X text 225 223 Cents;
#X floatatom 496 438 12 0 0 0 - - -;
#X obj 481 458 *;
#X floatatom 481 482 5 0 0 0 - - -;
#X obj 372 421 + 0.0001;
#X connect 0 0 11 0;
#X connect 1 0 16 1;
#X connect 2 0 5 0;
#X connect 3 0 6 0;
#X connect 4 0 7 1;
#X connect 5 0 3 0;
#X connect 6 0 4 0;
#X connect 7 0 8 0;
#X connect 8 0 24 0;
#X connect 9 0 17 0;
#X connect 11 0 10 0;
#X connect 12 0 14 0;
#X connect 14 0 16 0;
#X connect 16 0 11 1;
#X connect 17 0 0 0;
#X connect 17 1 7 0;
#X connect 18 0 20 0;
#X connect 19 0 21 0;
#X connect 20 0 19 0;
#X connect 21 0 26 0;
#X connect 23 0 24 1;
#X connect 24 0 25 0;
#X connect 25 0 1 0;
#X connect 26 0 23 0;
#X coords 0 -1 1 1 350 225 1 100 100;
