#N canvas 1762 531 337 691 10;
#X obj 128 187 adsr~;
#X obj 106 647 *~;
#X obj 105 722 outlet~;
#X obj 87 5 inlet;
#X obj 87 29 t b f;
#X obj 106 622 osc~ 440;
#X obj 220 437 knob 32 32 0 1 0 0 empty empty empty 0 -8 0 8 -262144
-1 -1 0 1;
#X obj 105 670 *~;
#X floatatom 220 483 5 0 0 0 - - -;
#X obj 155 439 knob 32 32 -48 48 0 0 empty empty empty 0 -8 0 8 -262144
-1 -1 1550 1;
#X floatatom 156 483 5 0 0 0 - - -;
#X floatatom 106 555 12 0 0 0 - - -;
#X obj 126 474 int;
#X obj 106 533 transposer;
#X obj 106 576 *;
#X floatatom 106 597 5 0 0 0 - - -;
#X text 223 418 Gain;
#X text 159 418 Tune;
#X obj 289 4 inlet~;
#X obj 105 696 +~;
#X obj 278 52 *~;
#X obj 256 140 knob 32 32 0 5000 0 0 empty empty empty 0 -8 0 8 -262144
-1 -1 1 1;
#X text 262 106 Mod Amt;
#X connect 0 0 1 1;
#X connect 1 0 7 0;
#X connect 3 0 4 0;
#X connect 4 0 0 0;
#X connect 4 1 14 0;
#X connect 5 0 1 0;
#X connect 6 0 8 0;
#X connect 7 0 19 0;
#X connect 8 0 7 1;
#X connect 9 0 12 0;
#X connect 10 0 13 0;
#X connect 11 0 14 1;
#X connect 12 0 10 0;
#X connect 13 0 11 0;
#X connect 14 0 15 0;
#X connect 15 0 5 0;
#X connect 18 0 20 1;
#X connect 19 0 2 0;
#X connect 20 0 19 1;
#X connect 21 0 20 0;
#X coords 0 -1 1 1 200 425 1 100 100;
