#N canvas 0 113 1093 544 10;
#X floatatom 150 183 5 0 0 0 - - -;
#X obj 150 152 knob 22 22 30 240 0 0 empty empty empty 0 -8 0 8 -262144
-1 -1 0 1;
#X text 151 131 BPM;
#X obj -21 200 /;
#X obj -16 175 t b f;
#X floatatom 61 108 5 0 0 0 - - -;
#X msg -57 153 60000;
#X obj -68 129 loadbang;
#X obj 34 130 metro;
#X obj 108 130 tgl 30 0 empty empty empty 17 7 0 10 -262144 -1 -1 0
1;
#X msg 66 152 0;
#X obj 35 177 f 0;
#X obj 64 177 + 1;
#X obj 189 130 bng 15 250 50 0 empty empty empty 17 7 0 10 -262144
-1 -1;
#X obj 290 44 select 0 1 2 3 4 5 6 7 8 9 10 11 12 13 14 15;
#X obj 224 130 bng 15 250 50 0 empty empty empty 17 7 0 10 -262144
-1 -1;
#X obj 259 130 bng 15 250 50 0 empty empty empty 17 7 0 10 -262144
-1 -1;
#X obj 294 130 bng 15 250 50 0 empty empty empty 17 7 0 10 -262144
-1 -1;
#X obj 330 130 bng 15 250 50 0 empty empty empty 17 7 0 10 -262144
-1 -1;
#X obj 365 130 bng 15 250 50 0 empty empty empty 17 7 0 10 -262144
-1 -1;
#X obj 400 130 bng 15 250 50 0 empty empty empty 17 7 0 10 -262144
-1 -1;
#X obj 435 130 bng 15 250 50 0 empty empty empty 17 7 0 10 -262144
-1 -1;
#X obj 470 130 bng 15 250 50 0 empty empty empty 17 7 0 10 -262144
-1 -1;
#X obj 505 130 bng 15 250 50 0 empty empty empty 17 7 0 10 -262144
-1 -1;
#X obj 540 130 bng 15 250 50 0 empty empty empty 17 7 0 10 -262144
-1 -1;
#X obj 575 130 bng 15 250 50 0 empty empty empty 17 7 0 10 -262144
-1 -1;
#X obj 610 130 bng 15 250 50 0 empty empty empty 17 7 0 10 -262144
-1 -1;
#X obj 645 130 bng 15 250 50 0 empty empty empty 17 7 0 10 -262144
-1 -1;
#X obj 680 130 bng 15 250 50 0 empty empty empty 17 7 0 10 -262144
-1 -1;
#X obj 715 130 bng 15 250 50 0 empty empty empty 17 7 0 10 -262144
-1 -1;
#X obj 203 273 f;
#X floatatom 185 183 5 0 0 0 - - -;
#X obj 238 273 f;
#X floatatom 220 183 5 0 0 0 - - -;
#X obj 273 273 f;
#X floatatom 255 183 5 0 0 0 - - -;
#X obj 308 273 f;
#X floatatom 290 183 5 0 0 0 - - -;
#X obj 344 273 f;
#X floatatom 326 183 5 0 0 0 - - -;
#X obj 379 273 f;
#X floatatom 361 183 5 0 0 0 - - -;
#X obj 414 273 f;
#X floatatom 396 183 5 0 0 0 - - -;
#X obj 449 273 f;
#X floatatom 431 183 5 0 0 0 - - -;
#X obj 484 273 f;
#X floatatom 466 183 5 0 0 0 - - -;
#X obj 519 273 f;
#X floatatom 501 183 5 0 0 0 - - -;
#X obj 554 273 f;
#X floatatom 536 183 5 0 0 0 - - -;
#X obj 589 273 f;
#X floatatom 571 183 5 0 0 0 - - -;
#X obj 624 273 f;
#X floatatom 606 183 5 0 0 0 - - -;
#X obj 659 273 f;
#X floatatom 641 183 5 0 0 0 - - -;
#X obj 694 273 f;
#X floatatom 676 183 5 0 0 0 - - -;
#X obj 729 273 f;
#X floatatom 711 183 5 0 0 0 - - -;
#X obj -21 226 / 2;
#X obj 185 152 knob 22 22 56 68 0 0 empty empty empty 0 -8 0 8 -262144
-1 -1 800 1;
#X obj 220 151 knob 22 22 56 68 0 0 empty empty empty 0 -8 0 8 -262144
-1 -1 400 1;
#X obj 255 152 knob 22 22 56 68 0 0 empty empty empty 0 -8 0 8 -262144
-1 -1 300 1;
#X obj 290 151 knob 22 22 56 68 0 0 empty empty empty 0 -8 0 8 -262144
-1 -1 300 1;
#X obj 326 151 knob 22 22 56 68 0 0 empty empty empty 0 -8 0 8 -262144
-1 -1 400 1;
#X obj 361 150 knob 22 22 56 68 0 0 empty empty empty 0 -8 0 8 -262144
-1 -1 700 1;
#X obj 396 151 knob 22 22 56 68 0 0 empty empty empty 0 -8 0 8 -262144
-1 -1 300 1;
#X obj 431 150 knob 22 22 56 68 0 0 empty empty empty 0 -8 0 8 -262144
-1 -1 300 1;
#X obj 466 152 knob 22 22 56 68 0 0 empty empty empty 0 -8 0 8 -262144
-1 -1 200 1;
#X obj 501 151 knob 22 22 56 68 0 0 empty empty empty 0 -8 0 8 -262144
-1 -1 400 1;
#X obj 536 152 knob 22 22 56 68 0 0 empty empty empty 0 -8 0 8 -262144
-1 -1 500 1;
#X obj 571 151 knob 22 22 56 68 0 0 empty empty empty 0 -8 0 8 -262144
-1 -1 500 1;
#X obj 607 151 knob 22 22 56 68 0 0 empty empty empty 0 -8 0 8 -262144
-1 -1 0 1;
#X obj 642 150 knob 22 22 56 68 0 0 empty empty empty 0 -8 0 8 -262144
-1 -1 0 1;
#X obj 677 151 knob 22 22 56 68 0 0 empty empty empty 0 -8 0 8 -262144
-1 -1 0 1;
#X obj 712 150 knob 22 22 56 68 0 0 empty empty empty 0 -8 0 8 -262144
-1 -1 0 1;
#X obj 202 252 int;
#X obj 237 252 int;
#X obj 272 252 int;
#X obj 307 252 int;
#X obj 343 252 int;
#X obj 378 252 int;
#X obj 413 252 int;
#X obj 448 252 int;
#X obj 483 252 int;
#X obj 518 252 int;
#X obj 553 252 int;
#X obj 588 252 int;
#X obj 624 252 int;
#X obj 659 252 int;
#X obj 694 252 int;
#X obj 729 252 int;
#X obj 3 331 outlet;
#X obj 418 426 mtof;
#X obj 418 468 outlet;
#X connect 0 0 4 0;
#X connect 1 0 0 0;
#X connect 3 0 62 0;
#X connect 4 0 3 0;
#X connect 4 1 3 1;
#X connect 5 0 8 1;
#X connect 6 0 3 0;
#X connect 7 0 6 0;
#X connect 8 0 11 0;
#X connect 8 0 95 0;
#X connect 9 0 8 0;
#X connect 10 0 11 1;
#X connect 11 0 12 0;
#X connect 11 0 14 0;
#X connect 12 0 11 1;
#X connect 13 0 30 0;
#X connect 14 0 13 0;
#X connect 14 1 15 0;
#X connect 14 2 16 0;
#X connect 14 3 17 0;
#X connect 14 4 18 0;
#X connect 14 5 19 0;
#X connect 14 6 20 0;
#X connect 14 7 21 0;
#X connect 14 8 22 0;
#X connect 14 9 23 0;
#X connect 14 10 24 0;
#X connect 14 11 25 0;
#X connect 14 12 26 0;
#X connect 14 13 27 0;
#X connect 14 14 28 0;
#X connect 14 15 29 0;
#X connect 14 15 10 0;
#X connect 15 0 32 0;
#X connect 16 0 34 0;
#X connect 17 0 36 0;
#X connect 18 0 38 0;
#X connect 19 0 40 0;
#X connect 20 0 42 0;
#X connect 21 0 44 0;
#X connect 22 0 46 0;
#X connect 23 0 48 0;
#X connect 24 0 50 0;
#X connect 25 0 52 0;
#X connect 26 0 54 0;
#X connect 27 0 56 0;
#X connect 28 0 58 0;
#X connect 29 0 60 0;
#X connect 30 0 31 0;
#X connect 31 0 96 0;
#X connect 32 0 33 0;
#X connect 33 0 96 0;
#X connect 34 0 35 0;
#X connect 35 0 96 0;
#X connect 36 0 37 0;
#X connect 37 0 96 0;
#X connect 38 0 39 0;
#X connect 39 0 96 0;
#X connect 40 0 41 0;
#X connect 41 0 96 0;
#X connect 42 0 43 0;
#X connect 43 0 96 0;
#X connect 44 0 45 0;
#X connect 45 0 96 0;
#X connect 46 0 47 0;
#X connect 47 0 96 0;
#X connect 48 0 49 0;
#X connect 49 0 96 0;
#X connect 50 0 51 0;
#X connect 51 0 96 0;
#X connect 52 0 53 0;
#X connect 53 0 96 0;
#X connect 54 0 55 0;
#X connect 55 0 96 0;
#X connect 56 0 57 0;
#X connect 57 0 96 0;
#X connect 58 0 59 0;
#X connect 59 0 96 0;
#X connect 60 0 61 0;
#X connect 61 0 96 0;
#X connect 62 0 5 0;
#X connect 63 0 79 0;
#X connect 64 0 80 0;
#X connect 65 0 81 0;
#X connect 66 0 82 0;
#X connect 67 0 83 0;
#X connect 68 0 84 0;
#X connect 69 0 85 0;
#X connect 70 0 86 0;
#X connect 71 0 87 0;
#X connect 72 0 88 0;
#X connect 73 0 89 0;
#X connect 74 0 90 0;
#X connect 75 0 91 0;
#X connect 76 0 92 0;
#X connect 77 0 93 0;
#X connect 78 0 94 0;
#X connect 79 0 30 0;
#X connect 80 0 32 0;
#X connect 81 0 34 0;
#X connect 82 0 36 0;
#X connect 83 0 38 0;
#X connect 84 0 40 0;
#X connect 85 0 42 0;
#X connect 86 0 44 0;
#X connect 87 0 46 0;
#X connect 88 0 48 0;
#X connect 89 0 50 0;
#X connect 90 0 52 0;
#X connect 91 0 54 0;
#X connect 92 0 56 0;
#X connect 93 0 58 0;
#X connect 94 0 60 0;
#X connect 96 0 97 0;
#X coords 0 -1 1 1 650 125 1 100 100;
