#N canvas 501 31 573 806 10;
#N canvas 0 22 473 564 spectrum 1;
#X obj 335 197 rfft~;
#X obj 260 268 tgl 15 0 empty empty empty 17 7 0 10 -262144 -1 -1 1
1;
#N canvas 51 367 1153 478 (subpatch) 0;
#X array spectrum 128 float 1;
#A 0 0 0 0 0 0 0 0 0 0 0 0 0 0 0 0 0 0 0 0 0 0 0 0 0 0 0 0 0 0 0 0
0 0 0 0 0 0 0 0 0 0 0 0 0 0 0 0 0 0 0 0 0 0 0 0 0 0 0 0 0 0 0 0 0 0
0 0 0 0 0 0 0 0 0 0 0 0 0 0 0 0 0 0 0 0 0 0 0 0 0 0 0 0 0 0 0 0 0 0
0 0 0 0 0 0 0 0 0 0 0 0 0 0 0 0 0 0 0 0 0 0 0 0 0 0 0 0 0;
#X coords 0 256 127 0 400 150 1 0 0;
#X restore 37 379 graph;
#X obj 335 224 *~;
#X obj 362 224 *~;
#X obj 335 275 biquad~ 0 0 0 0 1;
#X obj 260 290 metro 50;
#X obj 335 253 q8_sqrt~;
#X text 35 531 20Hz;
#X text 412 530 2KHz;
#X obj 42 27 block~ 4096;
#X obj 192 238 loadbang;
#X msg 46 90 \; pd dsp 1;
#X obj 327 25 inlet~;
#X obj 309 328 tabwrite~ spectrum;
#X connect 0 0 3 0;
#X connect 0 0 3 1;
#X connect 0 1 4 0;
#X connect 0 1 4 1;
#X connect 1 0 6 0;
#X connect 3 0 7 0;
#X connect 4 0 7 0;
#X connect 5 0 14 0;
#X connect 6 0 14 0;
#X connect 7 0 5 0;
#X connect 11 0 1 0;
#X connect 11 0 12 0;
#X connect 13 0 0 0;
#X coords 0 -1 1 1 420 200 2 25 350;
#X restore 114 112 pd spectrum;
#X obj 89 587 f;
#X obj 224 587 samplerate~;
#X obj 89 617 expr $f1 * ($f2 / 4096);
#X obj 64 368 until;
#X obj 70 537 t f b b;
#X obj 117 587 + 1;
#X obj 90 712 pack f f;
#X obj 135 685 f;
#X obj 90 641 t f b;
#X obj 90 737 print;
#X msg 47 316 256;
#X obj 64 391 f;
#X obj 92 391 + 1;
#X obj 64 336 t f b;
#X msg 148 350 0;
#X text 76 317 <- click on this to have freq and amp info printed;
#X obj 154 466 sel 1;
#X text 236 440 <-- amp threshold;
#X obj 70 514 f;
#X obj 395 118 hsl 128 15 0 127 0 0 empty empty empty -2 -8 0 10 -262144
-1 -1 0 1;
#X floatatom 201 442 5 0 0 0 - - -;
#X obj 154 442 > 50;
#X obj 115 78 inlet~;
#X obj 62 411 tabread spectrum;
#X connect 1 0 3 0;
#X connect 1 0 6 0;
#X connect 2 0 3 1;
#X connect 3 0 9 0;
#X connect 4 0 12 0;
#X connect 5 0 8 1;
#X connect 5 1 1 0;
#X connect 5 2 2 0;
#X connect 6 0 1 1;
#X connect 7 0 10 0;
#X connect 8 0 7 1;
#X connect 9 0 7 0;
#X connect 9 1 8 0;
#X connect 11 0 14 0;
#X connect 12 0 13 0;
#X connect 12 0 24 0;
#X connect 13 0 12 1;
#X connect 14 0 4 0;
#X connect 14 1 15 0;
#X connect 15 0 12 1;
#X connect 15 0 1 1;
#X connect 17 0 19 0;
#X connect 19 0 5 0;
#X connect 20 0 21 0;
#X connect 20 0 22 1;
#X connect 22 0 17 0;
#X connect 23 0 0 0;
#X connect 24 0 19 1;
#X connect 24 0 22 0;
#X coords 0 -1 1 1 450 220 2 100 100;
