#N canvas 352 209 231 319 10;
#X obj 28 56 phasor~;
#X obj 136 62 phasor~;
#X obj 92 108 -~;
#X obj 92 131 *~ 2;
#X obj 68 29 0;
#X obj 177 30 0.5;
#X obj 121 -20 loadbang;
#X obj 45 -33 inlet;
#X obj 93 181 outlet~;
#X connect 0 0 2 0;
#X connect 1 0 2 1;
#X connect 2 0 3 0;
#X connect 3 0 8 0;
#X connect 4 0 0 1;
#X connect 5 0 1 1;
#X connect 6 0 4 0;
#X connect 6 0 5 0;
#X connect 7 0 0 0;
#X connect 7 0 1 0;
