#N canvas 9 22 1265 706 10;
#X obj 939 -16310 tgl 50 0 empty empty empty 17 7 0 10 -262144 -1 -1
1 1;
#X msg 925 -16233 \; pd dsp \$1;
#X floatatom 956 -16256 5 0 0 0 - - -;
#X obj 924 -15839 final_gain~;
#X obj 663 -15829 osciliscope~;
#X obj 11 -16165 operator~;
#X obj 259 -15900 fm~;
#X obj 258 -16276 metro 125;
#X obj 258 -16295 tgl 15 0 empty empty empty 17 7 0 10 -262144 -1 -1
1 1;
#X obj 258 -16223 t b f;
#X obj 258 -16252 random 1000;
#X obj 371 -16207 mtof;
#X floatatom 371 -16184 5 0 0 0 - - -;
#X obj 191 -16237 + 200;
#X msg 371 -16230 440;
#X obj 371 -16163 operator~;
#X connect 0 0 1 0;
#X connect 0 0 2 0;
#X connect 5 0 6 0;
#X connect 6 0 4 0;
#X connect 6 0 3 0;
#X connect 6 0 3 1;
#X connect 7 0 10 0;
#X connect 8 0 7 0;
#X connect 9 0 14 0;
#X connect 9 1 7 1;
#X connect 10 0 13 0;
#X connect 11 0 12 0;
#X connect 12 0 5 0;
#X connect 12 0 15 0;
#X connect 13 0 9 0;
#X connect 14 0 11 0;
#X connect 15 0 6 1;
