#N canvas 768 81 219 276 10;
#X obj 34 88 phasor~ 440;
#X obj 77 155 +~;
#X obj 41 23 inlet;
#X obj 66 225 outlet~;
#X obj 113 65 + 1;
#X obj 113 88 phasor~ 441;
#X obj 67 180 -~ 1;
#X connect 0 0 1 0;
#X connect 1 0 6 0;
#X connect 2 0 0 0;
#X connect 2 0 4 0;
#X connect 4 0 5 0;
#X connect 5 0 1 1;
#X connect 6 0 3 0;
