#N canvas 5 169 1276 706 10;
#X obj 1171 480 final_gain~;
#X obj 35 32 notein;
#X floatatom 72 76 5 0 0 0 - - -;
#X obj 141 46 ctlin;
#X floatatom 141 76 5 0 0 0 - - -;
#X floatatom 181 76 5 0 0 0 - - -;
#X floatatom 221 76 5 0 0 0 - - -;
#X obj 35 317 mtof;
#X obj 127 671 *~;
#X obj 649 218 knob 32 32 0 127 0 0 empty empty empty 0 -8 0 8 -262144
-1 -1 0 1;
#X floatatom 35 358 5 0 0 0 - - -;
#X obj 26 539 osc~;
#X obj 66 539 osc~;
#X obj 66 587 *~;
#X obj 35 337 int;
#X obj 562 215 knob 32 32 0 127 0 0 empty empty empty 0 -8 0 8 -262144
-1 -1 0 1;
#X obj 66 440 *;
#X floatatom 92 376 12 0 0 0 - - -;
#X obj 92 355 transposer;
#X obj 563 257 * 25;
#X obj 576 286 sig~;
#X obj 26 609 +~;
#X obj 26 632 osc~;
#X floatatom 93 333 5 0 0 0 - - -;
#X obj 35 164 stripnote;
#X floatatom 35 194 5 0 0 0 - - -;
#X obj 452 189 bendin;
#X floatatom 451 216 5 0 0 0 - - -;
#X floatatom 488 216 5 0 0 0 - - -;
#X obj 451 240 - 8192;
#X obj 451 266 / 8192;
#X floatatom 66 508 5 0 0 0 - - -;
#X obj 561 189 ctlin 33 1;
#X obj 452 293 * 8;
#X floatatom 649 303 5 0 0 0 - - -;
#X obj 649 187 ctlin 11 1;
#X obj 649 271 / 127;
#X text 421 162 Drag = Pitch Bend;
#X text 538 161 Tilt = Mod Depth;
#X text 646 160 Pressure = Volume;
#X connect 1 0 24 0;
#X connect 1 1 2 0;
#X connect 1 1 24 1;
#X connect 3 0 4 0;
#X connect 3 1 5 0;
#X connect 3 2 6 0;
#X connect 7 0 14 0;
#X connect 8 0 0 0;
#X connect 8 0 0 1;
#X connect 9 0 36 0;
#X connect 10 0 16 1;
#X connect 10 0 11 0;
#X connect 11 0 21 0;
#X connect 12 0 13 0;
#X connect 13 0 21 1;
#X connect 14 0 10 0;
#X connect 15 0 19 0;
#X connect 16 0 31 0;
#X connect 17 0 16 0;
#X connect 18 0 17 0;
#X connect 19 0 20 0;
#X connect 20 0 13 1;
#X connect 21 0 22 0;
#X connect 22 0 8 0;
#X connect 23 0 18 0;
#X connect 24 0 25 0;
#X connect 25 0 7 0;
#X connect 26 0 27 0;
#X connect 26 1 28 0;
#X connect 27 0 29 0;
#X connect 29 0 30 0;
#X connect 30 0 33 0;
#X connect 31 0 12 0;
#X connect 32 0 15 0;
#X connect 33 0 23 0;
#X connect 34 0 8 1;
#X connect 35 0 9 0;
#X connect 36 0 34 0;
